<svg width="550px" height="550px" viewBox="0 0 32 28" version="1.1" xmlns="http://www.w3.org/2000/svg" xmlns:xlink="http://www.w3.org/1999/xlink" xml:space="preserve" style="fill-rule:evenodd;clip-rule:evenodd;stroke-linejoin:round;stroke-miterlimit:2;">
<g xmlns="http://www.w3.org/2000/svg" transform="matrix(1,0,0,1,-12236.5,-4241)"><g transform="matrix(0.893051,0,0,32.1655,10118,-29637)"><g transform="matrix(1,0,0,0.392344,-27.9939,639.573)"><g transform="matrix(0.342148,0,0,0.0242121,2154.16,929.167)"><path d="M773,5252C773,5252 748.646,5252 740,5252C739.204,5252 738.441,5251.68 737.879,5251.12C737.316,5250.56 737,5249.8 737,5249C737,5237.29 737,5194.71 737,5183C737,5182.2 737.316,5181.44 737.879,5180.88C738.441,5180.32 739.204,5180 740,5180C747.597,5180 767.386,5180 773,5180C792.869,5180 809,5196.13 809,5216C809,5235.87 792.869,5252 773,5252ZM773,5189C787.902,5189 800,5201.1 800,5216C800,5230.9 787.902,5243 773,5243L749,5243C747.343,5243 746,5241.66 746,5240C746,5233.82 746,5219.91 746,5216C746,5201.1 758.098,5189 773,5189ZM773,5234C782.935,5234 791,5225.93 791,5216C791,5206.07 782.934,5198 773,5198C763.065,5198 755,5206.07 755,5216C755,5218.21 755,5226.48 755,5231C755,5232.66 756.343,5234 758,5234C763.12,5234 773,5234 773,5234ZM773,5207C777.967,5207 782,5211.03 782,5216C782,5220.97 777.967,5225 773,5225C772.265,5225 768.43,5225 766.009,5225C764.899,5225 764,5224.1 764,5222.99C764,5220.68 764,5217.06 764,5216C764,5211.03 768.033,5207 773,5207Z" style="fill:currentColor;"/></g></g></g></g>
</svg>